<?xml version="1.0" encoding="UTF-8"?>
<svg version="1.1" xmlns="http://www.w3.org/2000/svg" width="800" height="600">
<path d="M0 0 C0.4640625 1.7015625 0.4640625 1.7015625 0.9375 3.4375 C3.12318789 9.27287428 7.45963098 12.90695797 12 17 C12.63035156 17.57363281 13.26070312 18.14726562 13.91015625 18.73828125 C15.1741125 19.86269244 16.45098651 20.97269773 17.73828125 22.0703125 C19.44128707 23.52330883 21.12264064 25.00174088 22.79296875 26.4921875 C40.19734553 41.86835948 61.52830012 54.80738125 84 61 C84 62.65 84 64.3 84 66 C83.01 66 82.02 66 81 66 C80.61866701 67.9914056 80.28674418 69.99279077 80 72 C80.33 72.33 80.66 72.66 81 73 C81.375 75.75 81.375 75.75 81 79 C78.8125 81.375 78.8125 81.375 76 84 C74.61791491 86.10061228 73.35409244 88.23920519 72.11328125 90.42578125 C71.56220703 91.20501953 71.56220703 91.20501953 71 92 C70.34 92 69.68 92 69 92 C68.73832031 92.67933594 68.47664063 93.35867187 68.20703125 94.05859375 C67.34525925 96.15864009 66.41824074 98.23239178 65.44921875 100.28515625 C45.96316584 141.58585369 45.28176808 197.74590257 55 242 C55.17402344 242.83144531 55.34804688 243.66289062 55.52734375 244.51953125 C58.06887762 256.63125471 61.16401536 268.53135269 64.66796875 280.3984375 C69.31151541 296.2122661 69.31151541 296.2122661 66.26928711 303.1027832 C63.58343665 307.11735215 59.16465247 309.32425982 55.125 311.8125 C53.21522388 313.03559675 51.30766652 314.26216488 49.40234375 315.4921875 C48.47534668 316.08741211 47.54834961 316.68263672 46.59326172 317.29589844 C38.72450457 322.466669 31.38222272 328.41352321 24.48828125 334.8203125 C23 336 23 336 21 336 C21 336.66 21 337.32 21 338 C19.38281689 339.4328718 17.70376628 340.79624749 16 342.125 C8.80084761 347.89355159 2.57381993 354.17532965 -3.39453125 361.1953125 C-5 363 -5 363 -7.875 365.5625 C-10.56810099 368.65164525 -10.76321499 370.97465481 -11 375 C-14.01693417 375.18284449 -16.23639301 374.93117302 -19.16040039 374.07983398 C-23.22470657 372.9368044 -27.20403299 372.22429598 -31.37109375 371.59765625 C-32.16171204 371.47546722 -32.95233032 371.3532782 -33.76690674 371.22738647 C-36.32304809 370.83418445 -38.88019764 370.44807261 -41.4375 370.0625 C-43.2139558 369.79114437 -44.99040433 369.51974107 -46.7668457 369.24829102 C-57.00288601 367.69474295 -67.24261342 366.30425636 -77.52685547 365.10693359 C-84.60120989 364.25214124 -91.56252241 363.01152915 -98.5625 361.6875 C-118.34379437 357.99761488 -138.33380529 355.66074718 -158.31140137 353.31567383 C-160.01283915 353.11590456 -161.71411494 352.91474655 -163.41516113 352.71166992 C-193.35347511 349.14135827 -224.71506744 347.60621833 -254.68457031 351.69238281 C-257.14841174 352.01971729 -259.61461492 352.29000244 -262.0859375 352.5546875 C-284.30690458 355.05027303 -307.06352371 358.97353146 -328.47729492 365.49633789 C-334.59821625 367.31632405 -340.63644002 367.87632657 -347 368 C-347.99 366.515 -347.99 366.515 -349 365 C-352.12197478 366.3089572 -352.12197478 366.3089572 -354 369 C-359.55766509 367.82434008 -361.78855902 366.64511998 -365 362 C-365.81559863 360.35668988 -366.62763661 358.71078046 -367.38330078 357.0390625 C-372.9716805 344.69740138 -381.065116 333.91481057 -389 323 C-389.52247314 322.27216309 -390.04494629 321.54432617 -390.58325195 320.79443359 C-394.04143956 316.05723733 -397.81244473 311.7908974 -401.9375 307.625 C-402.81051758 306.70267578 -402.81051758 306.70267578 -403.70117188 305.76171875 C-407.66247328 301.75216228 -410.52872793 300.24627224 -416 299 C-421.64606395 287.70787211 -415.31645865 267.56654425 -412.33203125 256.08984375 C-411.90859711 253.80607012 -411.90859711 253.80607012 -412.04296875 250.6796875 C-411.99919836 246.93135044 -411.39632458 243.81844448 -410.5 240.1875 C-409.30398324 234.95073502 -408.72604016 230.24905819 -408.9921875 224.890625 C-409 223 -409 223 -408 221 C-407.52762915 213.62267882 -408.23983595 206.22139497 -408.78125 198.8671875 C-409.06340965 193.87900805 -409.02965602 188.91948573 -408.9375 183.92578125 C-408.99227971 181.36140613 -409.36966001 179.45187367 -410 177 C-410.01906191 175.2708129 -409.99486195 173.54084053 -409.9375 171.8125 C-409.88291204 167.26956882 -410.43623009 163.33640733 -411.5546875 158.94921875 C-412.09141921 156.59984049 -412.15487882 154.40062176 -412 152 C-412.66 152 -413.32 152 -414 152 C-415.44809594 149.10380813 -415.23532271 146.41670587 -415.375 143.1875 C-415.70407038 136.87255545 -416.73143799 131.02714202 -418.37890625 124.90234375 C-419.23864847 120.88480619 -419.90251043 117.53824104 -417.7578125 113.8828125 C-417.21898437 113.30273438 -416.68015625 112.72265625 -416.125 112.125 C-415.32449219 111.23167969 -415.32449219 111.23167969 -414.5078125 110.3203125 C-413 109 -413 109 -411 109 C-409.6787835 106.56083107 -408.77539233 104.28654033 -407.9375 101.625 C-406.45426288 97.55733457 -404.20937479 94.13652333 -401.8125 90.5625 C-393.62319334 78.19616435 -388.26288926 64.62503625 -383.14453125 50.75415039 C-379.6860812 41.56883011 -379.6860812 41.56883011 -376 38 C-373.69011685 37.25613932 -371.35684056 36.57809297 -369 36 C-368.505 35.01 -368.505 35.01 -368 34 C-363.83644206 33.84859789 -360.13599957 33.85737417 -356.08984375 34.875 C-328.42166312 41.24323028 -299.9301109 40.54385982 -271.73864746 40.04748535 C-269.23628757 40.00409699 -266.73394198 39.96702535 -264.23144531 39.93261719 C-244.93480562 39.65170984 -225.80513708 38.23915162 -206.61035156 36.35107422 C-203.63451599 36.06170097 -200.65858468 35.79037241 -197.6796875 35.53515625 C-186.17117971 34.51895247 -174.7599573 32.86518594 -163.32769775 31.22366333 C-152.72955738 29.70689009 -142.16894857 28.47981848 -131.5 27.5625 C-99.44510057 24.72591235 -68.10038711 18.19617709 -37.30078125 8.98535156 C-31.16563903 7.15388455 -25.02283377 5.35086648 -18.875 3.5625 C-17.08715088 3.03112427 -17.08715088 3.03112427 -15.26318359 2.48901367 C-14.14250488 2.16392822 -13.02182617 1.83884277 -11.8671875 1.50390625 C-10.87831543 1.21330322 -9.88944336 0.9227002 -8.87060547 0.62329102 C-5.83245273 -0.03637933 -3.09939097 -0.11063096 0 0 Z " fill="#F4BC84" transform="translate(538,114)"/>
<path d="M0 0 C0.3125 2.6875 0.3125 2.6875 0 6 C-2.1875 8.375 -2.1875 8.375 -5 11 C-6.38208509 13.10061228 -7.64590756 15.23920519 -8.88671875 17.42578125 C-9.43779297 18.20501953 -9.43779297 18.20501953 -10 19 C-10.66 19 -11.32 19 -12 19 C-12.26167969 19.67933594 -12.52335937 20.35867187 -12.79296875 21.05859375 C-13.65474075 23.15864009 -14.58175926 25.23239178 -15.55078125 27.28515625 C-35.03683416 68.58585369 -35.71823192 124.74590257 -26 169 C-25.82597656 169.83144531 -25.65195312 170.66289062 -25.47265625 171.51953125 C-22.93112238 183.63125471 -19.83598464 195.53135269 -16.33203125 207.3984375 C-11.68848459 223.2122661 -11.68848459 223.2122661 -14.73071289 230.1027832 C-17.41656335 234.11735215 -21.83534753 236.32425982 -25.875 238.8125 C-27.78477612 240.03559675 -29.69233348 241.26216488 -31.59765625 242.4921875 C-32.52465332 243.08741211 -33.45165039 243.68263672 -34.40673828 244.29589844 C-42.27549543 249.466669 -49.61777728 255.41352321 -56.51171875 261.8203125 C-58 263 -58 263 -60 263 C-60 263.66 -60 264.32 -60 265 C-61.61718311 266.4328718 -63.29623372 267.79624749 -65 269.125 C-72.19915239 274.89355159 -78.42618007 281.17532965 -84.39453125 288.1953125 C-86 290 -86 290 -88.875 292.5625 C-91.56810099 295.65164525 -91.76321499 297.97465481 -92 302 C-95.01693417 302.18284449 -97.23639301 301.93117302 -100.16040039 301.07983398 C-104.22470657 299.9368044 -108.20403299 299.22429598 -112.37109375 298.59765625 C-113.16171204 298.47546722 -113.95233032 298.3532782 -114.76690674 298.22738647 C-117.32304809 297.83418445 -119.88019764 297.44807261 -122.4375 297.0625 C-124.2139558 296.79114437 -125.99040433 296.51974107 -127.7668457 296.24829102 C-138.00288601 294.69474295 -148.24261342 293.30425636 -158.52685547 292.10693359 C-165.60120989 291.25214124 -172.56252241 290.01152915 -179.5625 288.6875 C-199.34379437 284.99761488 -219.33380529 282.66074718 -239.31140137 280.31567383 C-241.01283915 280.11590456 -242.71411494 279.91474655 -244.41516113 279.71166992 C-274.35347511 276.14135827 -305.71506744 274.60621833 -335.68457031 278.69238281 C-338.14841174 279.01971729 -340.61461492 279.29000244 -343.0859375 279.5546875 C-365.30690458 282.05027303 -388.06352371 285.97353146 -409.47729492 292.49633789 C-415.59821625 294.31632405 -421.63644002 294.87632657 -428 295 C-428.38218767 293.34385343 -428.71395102 291.67542976 -429 290 C-426.88859557 287.88859557 -422.61060844 288.12125914 -419.6875 287.6875 C-413.05309358 286.65126267 -406.91633903 285.18912061 -400.58203125 282.91015625 C-393.56788226 280.43769526 -386.27038812 279.55959838 -378.9296875 278.55859375 C-375.60075897 278.08539616 -372.28848474 277.55359246 -368.97338867 276.99316406 C-365.6667083 276.44562107 -362.35384161 275.94430433 -359.03857422 275.45166016 C-356.89077402 275.13240655 -354.74405356 274.80584838 -352.59814453 274.47412109 C-308.98373298 267.89702395 -264.24966977 269.58130541 -220.8359375 276.9375 C-214.80793659 277.92660427 -208.75762403 278.66937692 -202.6953125 279.41015625 C-191.60226055 280.76835377 -180.55044904 282.33926804 -169.49768066 283.990448 C-154.10052205 286.28666676 -138.69862854 288.51467881 -123.25 290.4375 C-121.94353516 290.60113037 -120.63707031 290.76476074 -119.29101562 290.93334961 C-114.81676208 291.47923533 -110.51165491 292 -106 292 C-106.5775 291.319375 -107.155 290.63875 -107.75 289.9375 C-109.7976733 287.26414875 -111.43251081 284.64294481 -113.05078125 281.70703125 C-113.90355315 280.17344557 -114.82296868 278.67737177 -115.75 277.1875 C-117 275 -117 275 -117 273 C-117.66 273 -118.32 273 -119 273 C-119.29132813 272.3709375 -119.58265625 271.741875 -119.8828125 271.09375 C-123.10236031 264.37117219 -126.70298082 258.29701918 -132 253 C-131.625 250.375 -131.625 250.375 -131 248 C-128.75390625 248.1328125 -128.75390625 248.1328125 -126 249 C-123.96484375 251.4921875 -123.96484375 251.4921875 -121.9375 254.875 C-121.1577298 256.14854633 -120.37777144 257.42197746 -119.59765625 258.6953125 C-119.18273926 259.3852832 -118.76782227 260.07525391 -118.34033203 260.78613281 C-115.90561214 264.80763371 -113.385674 268.77564813 -110.875 272.75 C-110.36477295 273.56106201 -109.8545459 274.37212402 -109.32885742 275.20776367 C-105.7170416 280.92973568 -101.99107528 286.53335111 -98 292 C-96.8717446 290.8717446 -95.74385044 289.74312686 -94.6171875 288.61328125 C-93.46082551 287.4597124 -92.29870256 286.31190691 -91.1328125 285.16796875 C-87.86281392 281.94250322 -84.7053263 278.70505911 -81.75 275.1875 C-74.65959094 266.96907131 -66.13977611 259.95471676 -57.69921875 253.17578125 C-55.91346167 251.73632149 -54.14469942 250.27549501 -52.39453125 248.79296875 C-45.49468391 242.97345202 -38.22596889 237.95674004 -30.65185547 233.07324219 C-29.23609319 232.15339428 -27.83694735 231.2080588 -26.44140625 230.2578125 C-22.88249345 227.8762338 -20.35884603 226.31893031 -16 227 C-16.45721436 226.30302002 -16.91442871 225.60604004 -17.38549805 224.88793945 C-19.08267391 221.85211709 -19.95519041 219.15339658 -20.83203125 215.79296875 C-21.15276611 214.57875244 -21.47350098 213.36453613 -21.80395508 212.11352539 C-22.14067156 210.80498777 -22.4768404 209.49630912 -22.8125 208.1875 C-23.16456802 206.83249961 -23.51703029 205.47760159 -23.86987305 204.12280273 C-24.58192035 201.38283984 -25.28861222 198.64156362 -25.9921875 195.89941406 C-26.88633535 192.42342492 -27.81415307 188.95720408 -28.75 185.4921875 C-34.43355916 164.15284877 -36.56498879 143.040568 -37 121 C-37.02191406 120.0409375 -37.04382813 119.081875 -37.06640625 118.09375 C-37.8316302 80.54676144 -35.06066063 33.75388798 -9 4 C-4.66666667 0 -4.66666667 0 0 0 Z " fill="#0B0B04" transform="translate(619,187)"/>
<path d="M0 0 C0.4640625 1.7015625 0.4640625 1.7015625 0.9375 3.4375 C3.12318789 9.27287428 7.45963098 12.90695797 12 17 C12.63035156 17.57363281 13.26070312 18.14726562 13.91015625 18.73828125 C15.1741125 19.86269244 16.45098651 20.97269773 17.73828125 22.0703125 C19.44128707 23.52330883 21.12264064 25.00174088 22.79296875 26.4921875 C40.19734553 41.86835948 61.52830012 54.80738125 84 61 C84 62.65 84 64.3 84 66 C73.26127929 66.51961552 65.0074109 63.49067571 55.875 58 C55.05950684 57.51724609 54.24401367 57.03449219 53.40380859 56.53710938 C41.45901931 49.37998286 30.25066041 41.58504221 19.76953125 32.41015625 C17.94061584 30.81856132 16.06202728 29.28212456 14.13671875 27.80859375 C13.43160156 27.21175781 12.72648437 26.61492187 12 26 C12 25.34 12 24.68 12 24 C11.44699219 23.7628125 10.89398437 23.525625 10.32421875 23.28125 C7.44050326 21.69157155 5.24666595 19.71483933 2.8125 17.5 C1.49185547 16.30890625 1.49185547 16.30890625 0.14453125 15.09375 C-2 13 -2 13 -3 11 C-13.43806003 14.56421562 -20.14718392 25.71934377 -26.61376953 34.19921875 C-27.97104168 35.96238172 -29.35339569 37.70223711 -30.74609375 39.4375 C-35.68750044 45.63599475 -39.69248716 51.7664963 -43 59 C-43.97516468 60.68131842 -44.96004568 62.35796687 -46 64 C-46.66 63.67 -47.32 63.34 -48 63 C-48.84902407 48.06588438 -32.77315213 33.55651469 -23.69726562 22.78662109 C-23.11783203 22.09391113 -22.53839844 21.40120117 -21.94140625 20.6875 C-21.42263916 20.07261719 -20.90387207 19.45773438 -20.36938477 18.82421875 C-18.93404867 17.03170986 -18.93404867 17.03170986 -17.98022461 14.91015625 C-16.58014737 12.18183636 -14.43582763 10.79482036 -12 9 C-13.216875 9.433125 -14.43375 9.86625 -15.6875 10.3125 C-19.42621425 11.56261441 -23.15070797 12.52767157 -27 13.375 C-31.24861582 14.31642693 -35.39799983 15.39592233 -39.5534668 16.68847656 C-51.37207178 20.35943954 -63.44895657 22.79315989 -75.5625 25.2800293 C-77.83203652 25.7553747 -80.09789033 26.24870088 -82.359375 26.76098633 C-91.73095337 28.87187787 -101.10547914 30.22852889 -110.625 31.4375 C-112.28501145 31.65269352 -113.94500459 31.86802833 -115.60498047 32.08349609 C-127.86451729 33.66107648 -140.14197369 35.05051657 -152.43130493 36.37322998 C-160.75437184 37.26956884 -169.0471025 38.21982562 -177.3125 39.5625 C-185.77639404 40.93265859 -194.2807704 41.80459496 -202.8125 42.625 C-204.08843018 42.74818604 -205.36436035 42.87137207 -206.67895508 42.99829102 C-252.08644017 47.24414762 -300.93522956 49.84081878 -346.3125 44.1875 C-346.98633728 44.10472809 -347.66017456 44.02195618 -348.35443115 43.93667603 C-355.29299961 43.04911414 -361.57384808 41.7859963 -368 39 C-368 37.35 -368 35.7 -368 34 C-363.83644206 33.84859789 -360.13599957 33.85737417 -356.08984375 34.875 C-328.42166312 41.24323028 -299.9301109 40.54385982 -271.73864746 40.04748535 C-269.23628757 40.00409699 -266.73394198 39.96702535 -264.23144531 39.93261719 C-244.93480562 39.65170984 -225.80513708 38.23915162 -206.61035156 36.35107422 C-203.63451599 36.06170097 -200.65858468 35.79037241 -197.6796875 35.53515625 C-186.17117971 34.51895247 -174.7599573 32.86518594 -163.32769775 31.22366333 C-152.72955738 29.70689009 -142.16894857 28.47981848 -131.5 27.5625 C-99.44510057 24.72591235 -68.10038711 18.19617709 -37.30078125 8.98535156 C-31.16563903 7.15388455 -25.02283377 5.35086648 -18.875 3.5625 C-17.08715088 3.03112427 -17.08715088 3.03112427 -15.26318359 2.48901367 C-14.14250488 2.16392822 -13.02182617 1.83884277 -11.8671875 1.50390625 C-10.87831543 1.21330322 -9.88944336 0.9227002 -8.87060547 0.62329102 C-5.83245273 -0.03637933 -3.09939097 -0.11063096 0 0 Z " fill="#0C0B05" transform="translate(538,114)"/>
<path d="M0 0 C0.9075 0.103125 1.815 0.20625 2.75 0.3125 C3.52923828 1.90578125 3.52923828 1.90578125 4.32421875 3.53125 C9.07471644 13.2616726 9.07471644 13.2616726 14.625 22.546875 C15.85533967 24.47782476 16.88455792 26.46723682 17.9375 28.5 C22.30986231 36.4837122 28.3826852 43.68214065 34.375 50.5 C36.75 53.3125 36.75 53.3125 36.75 55.3125 C37.41 55.3125 38.07 55.3125 38.75 55.3125 C41.49375671 58.26731492 41.75 59.08721908 41.75 63.3125 C37.93796825 63.09466961 36.8747942 62.44977362 34.25 59.5625 C33.64091797 58.758125 33.64091797 58.758125 33.01953125 57.9375 C31.59212911 56.03615773 31.59212911 56.03615773 28.9375 53.5625 C26.75 51.3125 26.75 51.3125 26.75 49.3125 C26.09 49.3125 25.43 49.3125 24.75 49.3125 C23.37464661 47.34116014 22.04788956 45.33568078 20.75 43.3125 C20.110625 42.57 19.47125 41.8275 18.8125 41.0625 C14.80134157 35.71428876 12.16629671 29.51950073 9.75 23.3125 C9.09 23.3125 8.43 23.3125 7.75 23.3125 C7.75 22.3225 7.75 21.3325 7.75 20.3125 C7.09 20.3125 6.43 20.3125 5.75 20.3125 C4.49335022 17.40649739 3.75 15.51645416 3.75 12.3125 C2.76 11.9825 1.77 11.6525 0.75 11.3125 C0.0625 9.25 0.0625 9.25 -0.25 7.3125 C-0.55292969 8.26769531 -0.85585937 9.22289062 -1.16796875 10.20703125 C-3.42867761 17.22324412 -5.81771603 24.00426295 -9.0390625 30.65234375 C-10.02059827 32.80855619 -10.86203937 34.93027978 -11.671875 37.15234375 C-13.17144822 41.20936922 -14.93764827 45.07251 -16.875 48.9375 C-17.21764893 49.62118652 -17.56029785 50.30487305 -17.91333008 51.00927734 C-29.3675638 73.39087587 -29.3675638 73.39087587 -38.25 79.3125 C-37.88533613 85.36089044 -37.13341322 91.19530418 -35.875 97.125 C-32.73343615 112.30922529 -30.99154992 127.53704185 -30.4609375 143.02734375 C-30.36284132 145.62377395 -30.14275898 148.01710702 -29.75 150.59765625 C-26.83066408 172.28740986 -30.32187861 194.23142864 -33.34494019 215.69429016 C-34.62893928 224.87221702 -35.4973287 234.07762881 -36.25 243.3125 C-36.36085937 244.60414063 -36.47171875 245.89578125 -36.5859375 247.2265625 C-36.81514915 249.92134811 -37.03787877 252.61632758 -37.25 255.3125 C-36.13818359 255.40917969 -36.13818359 255.40917969 -35.00390625 255.5078125 C-31.3836495 256.56564639 -30.38741239 258.16972754 -28.1875 261.1875 C-25.74450518 264.50610287 -23.54046324 266.86480574 -20.25 269.3125 C-20.25 269.9725 -20.25 270.6325 -20.25 271.3125 C-19.26 271.6425 -18.27 271.9725 -17.25 272.3125 C-15.87926214 273.94854196 -14.54944744 275.61928061 -13.25 277.3125 C-12.59 277.951875 -11.93 278.59125 -11.25 279.25 C-5.25 285.4375 -5.25 285.4375 -5.25 289.3125 C-4.59 289.3125 -3.93 289.3125 -3.25 289.3125 C-2.97027344 289.83457031 -2.69054687 290.35664063 -2.40234375 290.89453125 C-0.00626351 295.29376538 2.51652144 299.55108983 5.25 303.75 C8.48588833 308.76314866 11.21046941 313.91746036 13.75 319.3125 C16.97081715 315.43501139 19.12485896 311.01073779 21.4375 306.5625 C22.06108398 305.37333984 22.06108398 305.37333984 22.69726562 304.16015625 C23.71799486 302.21255793 24.7354562 300.26332551 25.75 298.3125 C26.41 298.3125 27.07 298.3125 27.75 298.3125 C27.85699219 297.58933594 27.96398437 296.86617188 28.07421875 296.12109375 C29.23284125 291.30577827 32.12126162 287.45756354 34.75 283.3125 C35.31654297 282.34957031 35.31654297 282.34957031 35.89453125 281.3671875 C37.38292056 278.91223461 38.27489972 277.49726122 41 276.4375 C41.86625 276.375625 41.86625 276.375625 42.75 276.3125 C44.04376012 280.70669119 44.04376012 280.70669119 42.74609375 283.3828125 C42.23175781 284.06085938 41.71742188 284.73890625 41.1875 285.4375 C38.1650275 289.64511833 35.67212306 293.96748882 33.2421875 298.5390625 C32.1296117 300.60693898 30.97404673 302.65179534 29.796875 304.68359375 C27.72616557 308.29285306 25.89244805 311.98439718 24.125 315.75 C23.8259375 316.36681641 23.526875 316.98363281 23.21875 317.61914062 C21.10907579 322.10453202 19.83226837 326.47443892 18.75 331.3125 C13.19233491 330.13684008 10.96144098 328.95761998 7.75 324.3125 C6.93440137 322.66918988 6.12236339 321.02328046 5.36669922 319.3515625 C-0.2216805 307.00990138 -8.315116 296.22731057 -16.25 285.3125 C-16.77247314 284.58466309 -17.29494629 283.85682617 -17.83325195 283.10693359 C-21.29143956 278.36973733 -25.06244473 274.1033974 -29.1875 269.9375 C-30.06051758 269.01517578 -30.06051758 269.01517578 -30.95117188 268.07421875 C-34.91247328 264.06466228 -37.77872793 262.55877224 -43.25 261.3125 C-48.89606395 250.02037211 -42.56645865 229.87904425 -39.58203125 218.40234375 C-39.15859711 216.11857012 -39.15859711 216.11857012 -39.29296875 212.9921875 C-39.24919836 209.24385044 -38.64632458 206.13094448 -37.75 202.5 C-36.55398324 197.26323502 -35.97604016 192.56155819 -36.2421875 187.203125 C-36.25 185.3125 -36.25 185.3125 -35.25 183.3125 C-34.77762915 175.93517882 -35.48983595 168.53389497 -36.03125 161.1796875 C-36.31340965 156.19150805 -36.27965602 151.23198573 -36.1875 146.23828125 C-36.24227971 143.67390613 -36.61966001 141.76437367 -37.25 139.3125 C-37.26906191 137.5833129 -37.24486195 135.85334053 -37.1875 134.125 C-37.13291204 129.58206882 -37.68623009 125.64890733 -38.8046875 121.26171875 C-39.34141921 118.91234049 -39.40487882 116.71312176 -39.25 114.3125 C-39.91 114.3125 -40.57 114.3125 -41.25 114.3125 C-42.69809594 111.41630813 -42.48532271 108.72920587 -42.625 105.5 C-42.95407038 99.18505545 -43.98143799 93.33964202 -45.62890625 87.21484375 C-46.48864847 83.19730619 -47.15251043 79.85074104 -45.0078125 76.1953125 C-44.46898438 75.61523438 -43.93015625 75.03515625 -43.375 74.4375 C-42.57449219 73.54417969 -42.57449219 73.54417969 -41.7578125 72.6328125 C-40.25 71.3125 -40.25 71.3125 -38.25 71.3125 C-36.9287835 68.87333107 -36.02539233 66.59904033 -35.1875 63.9375 C-33.70426288 59.86983457 -31.45937479 56.44902333 -29.0625 52.875 C-20.87319334 40.50866435 -15.51288926 26.93753625 -10.39453125 13.06665039 C-5.68033522 0.54618608 -5.68033522 0.54618608 0 0 Z " fill="#140D0D" transform="translate(165.25,151.6875)"/>
<path d="M0 0 C5.68195345 0.92814587 11.37314934 1.65983899 17.08984375 2.3359375 C35.11987236 4.48687169 53.06860834 7.2896793 71.02734375 9.9609375 C71.02734375 10.2909375 71.02734375 10.6209375 71.02734375 10.9609375 C64.09432282 11.18824966 57.81048015 10.38095858 51.02734375 8.9609375 C51.02734375 9.6209375 51.02734375 10.2809375 51.02734375 10.9609375 C58.28734375 11.9509375 65.54734375 12.9409375 73.02734375 13.9609375 C73.02734375 14.6209375 73.02734375 15.2809375 73.02734375 15.9609375 C64.06692991 15.79828972 55.60479345 14.58165729 46.83984375 12.7734375 C17.974863 6.90469622 -11.6392531 3.49380199 -40.97265625 0.9609375 C-42.01832764 0.86594971 -43.06399902 0.77096191 -44.14135742 0.6730957 C-54.60317647 -0.18844785 -65.04522985 -0.2380599 -75.53515625 -0.2265625 C-76.46840729 -0.22629059 -77.40165833 -0.22601868 -78.3631897 -0.22573853 C-90.87097885 -0.20896792 -103.24481301 -0.03903887 -115.65722656 1.65332031 C-118.12106799 1.98065479 -120.58727117 2.25093994 -123.05859375 2.515625 C-145.27956083 5.01121053 -168.03617996 8.93446896 -189.44995117 15.45727539 C-195.5708725 17.27726155 -201.60909627 17.83726407 -207.97265625 17.9609375 C-208.35484392 16.30479093 -208.68660727 14.63636726 -208.97265625 12.9609375 C-206.86125182 10.84953307 -202.58326469 11.08219664 -199.66015625 10.6484375 C-193.02574983 9.61220017 -186.88899528 8.15005811 -180.5546875 5.87109375 C-173.54053851 3.39863276 -166.24304437 2.52053588 -158.90234375 1.51953125 C-155.57341522 1.04633366 -152.26114099 0.51452996 -148.94604492 -0.04589844 C-145.63936455 -0.59344143 -142.32649786 -1.09475817 -139.01123047 -1.58740234 C-136.86343027 -1.90665595 -134.71670981 -2.23321412 -132.57080078 -2.56494141 C-88.57937516 -9.19889266 -43.78884814 -7.2033013 0 0 Z " fill="#0C0808" transform="translate(398.97265625,464.0390625)"/>
<path d="M0 0 C1.32 0 2.64 0 4 0 C5.91618862 5.74856585 5.71589027 12.09457004 6.0625 18.125 C6.10669067 18.89175049 6.15088135 19.65850098 6.19641113 20.44848633 C7.62715481 46.04392477 7.70001064 71.68159444 5.92297363 97.25817871 C5.19149534 107.90934002 4.86837972 118.54367535 4.71484375 129.21875 C4.7049901 129.89369255 4.69513645 130.5686351 4.68498421 131.26403046 C4.59642416 137.44266682 4.51670044 143.62135915 4.46414185 149.80041504 C4.30600499 168.15218993 3.5878092 185.11225754 -1.125 202.9375 C-1.40214844 204.01451172 -1.67929687 205.09152344 -1.96484375 206.20117188 C-2.63551017 208.80289504 -3.31386937 211.40232105 -4 214 C-5.98 214 -7.96 214 -10 214 C-9.39610994 207.26113593 -8.15277026 200.92941465 -6.5 194.375 C-6.04901896 192.57107583 -5.60103575 190.7663992 -5.15625 188.9609375 C-4.95837891 188.17509277 -4.76050781 187.38924805 -4.55664062 186.57958984 C-0.76587749 169.01239541 -1.73543612 150.13224459 -1.44775391 132.25292969 C-1.39572104 129.09563235 -1.33866283 125.9384534 -1.28125 122.78125 C-1.26767456 121.83109009 -1.25409912 120.88093018 -1.2401123 119.90197754 C-1.22339478 118.99653198 -1.20667725 118.09108643 -1.18945312 117.15820312 C-1.17066101 115.98602234 -1.17066101 115.98602234 -1.15148926 114.79016113 C-1.02390891 112.44035933 -0.78416534 110.16539971 -0.49525452 107.83241272 C0.09211927 102.71962097 0.13338622 97.66489377 0.11352539 92.52319336 C0.11367142 91.51726135 0.11381744 90.51132935 0.1139679 89.47491455 C0.11327626 86.17986832 0.10551918 82.88488 0.09765625 79.58984375 C0.09578941 77.29342174 0.09436676 74.99699933 0.09336853 72.70057678 C0.08956432 66.67875047 0.07975206 60.65694856 0.06866455 54.63513184 C0.05840523 48.48136729 0.05386125 42.32759877 0.04882812 36.17382812 C0.0381278 24.11587474 0.02107672 12.0579394 0 0 Z " fill="#171509" transform="translate(490,184)"/>
<path d="M0 0 C4.16355794 -0.15140211 7.86400043 -0.14262583 11.91015625 0.875 C39.57833688 7.24323028 68.0698891 6.54385982 96.26135254 6.04748535 C98.76371243 6.00409699 101.26605802 5.96702535 103.76855469 5.93261719 C123.04989883 5.65205128 142.15679542 4.2098985 161.33789062 2.34765625 C166.55488522 1.85238956 171.77636704 1.41867874 177 1 C174.4107059 3.83913827 172.76168736 4.30705759 169 5 C168.67 5.66 168.34 6.32 168 7 C161.9955824 9.23209488 155.91456153 9.6156407 149.5625 10.0625 C147.83543823 10.1860083 147.83543823 10.1860083 146.07348633 10.31201172 C131.72280077 11.28314689 117.37939234 11.78476072 103 12 C101.91483093 12.01673767 100.82966187 12.03347534 99.71160889 12.05072021 C43.30982038 12.88131275 43.30982038 12.88131275 21.6875 10.1875 C20.67674408 10.06334213 20.67674408 10.06334213 19.64556885 9.93667603 C12.70700039 9.04911414 6.42615192 7.7859963 0 5 C0 3.35 0 1.7 0 0 Z " fill="#140D0D" transform="translate(170,148)"/>
<path d="M0 0 C1.88618975 3.77237951 1.62559973 8.28031046 1.9375 12.4375 C2.02249756 13.54464355 2.10749512 14.65178711 2.19506836 15.79248047 C3.17412344 29.28707807 3.73538448 42.80485638 4.30249023 56.32202148 C4.341716 57.23164139 4.38094177 58.14126129 4.4213562 59.07844543 C4.49474338 60.7861585 4.56544142 62.49399029 4.63284302 64.20195007 C4.79007688 67.84046418 5.02252969 71.41793972 5.51928711 75.02685547 C6.09147684 79.30679355 6.17141372 83.52978488 6.15625 87.84375 C6.15365173 89.08010193 6.15365173 89.08010193 6.15100098 90.34143066 C6.08249842 98.29340372 5.43901947 106.1584155 4.71716309 114.07296753 C3.31861041 129.70330703 2.71004117 145.24607958 2.75 160.9375 C2.75104736 161.82421387 2.75209473 162.71092773 2.75317383 163.62451172 C2.78206353 175.11405331 3.20142382 186.53857464 4 198 C2.34385343 198.38218767 0.67542976 198.71395102 -1 199 C-2.61228939 197.38771061 -2.12734133 195.64748997 -2.12939453 193.41796875 C-2.13254669 192.43763672 -2.13569885 191.45730469 -2.13894653 190.44726562 C-2.1369223 189.37154297 -2.13489807 188.29582031 -2.1328125 187.1875 C-2.13376923 186.07181641 -2.13472595 184.95613281 -2.13571167 183.80664062 C-2.13639505 181.42236271 -2.1345299 179.03808298 -2.13037109 176.65380859 C-2.12514492 173.09858677 -2.13024657 169.54349845 -2.13671875 165.98828125 C-2.14054506 154.46262148 -2.00702741 142.95499508 -1.5546875 131.4375 C-1.49657394 129.94959961 -1.49657394 129.94959961 -1.43728638 128.43164062 C-1.23232873 123.73114555 -0.9308439 119.06234907 -0.47363281 114.37939453 C0.00104301 109.40385281 0.14561414 104.48794743 0.1328125 99.4921875 C0.13424759 98.21578903 0.13424759 98.21578903 0.13571167 96.91360474 C0.13638552 95.13397141 0.13458745 93.3543355 0.13037109 91.57470703 C0.12499794 88.87396671 0.13035025 86.17339162 0.13671875 83.47265625 C0.13605809 81.72916631 0.13477717 79.98567646 0.1328125 78.2421875 C0.13483673 77.4481955 0.13686096 76.65420349 0.13894653 75.83615112 C0.11997149 71.2332179 -0.19440991 66.76121089 -0.75076294 62.19296265 C-1.14699525 58.70663263 -1.32187483 55.2140827 -1.5 51.7109375 C-1.58331878 50.17708254 -1.66665256 48.6432284 -1.75 47.109375 C-1.87587788 44.73539679 -2.00071373 42.36136673 -2.125 39.98730469 C-2.24743248 37.66587008 -2.37358804 35.3446583 -2.5 33.0234375 C-2.55317383 31.97160782 -2.55317383 31.97160782 -2.60742188 30.89852905 C-2.84540959 26.55088231 -3.37534489 22.30642691 -4 18 C-4.07066856 16.53389326 -4.10903427 15.06542107 -4.09765625 13.59765625 C-4.09443359 12.85322266 -4.09121094 12.10878906 -4.08789062 11.34179688 C-4.07951172 10.58962891 -4.07113281 9.83746094 -4.0625 9.0625 C-4.05798828 8.28326172 -4.05347656 7.50402344 -4.04882812 6.70117188 C-4.03716908 4.80074732 -4.01923877 2.90036294 -4 1 C-2 0 -2 0 0 0 Z " fill="#422A2B" transform="translate(209,218)"/>
<path d="M0 0 C1.98 0.99 1.98 0.99 4 2 C3.8125 3.8125 3.8125 3.8125 3 6 C-1.12467917 9.01999631 -5.50867548 10.16932828 -10.375 11.4375 C-11.16720947 11.64922852 -11.95941895 11.86095703 -12.77563477 12.07910156 C-14.40032183 12.51295854 -16.02573196 12.94411692 -17.65185547 13.37255859 C-19.8179781 13.95136242 -21.97404307 14.55657977 -24.12890625 15.17578125 C-25.38574219 15.53027344 -26.64257812 15.88476562 -27.9375 16.25 C-29.59072266 16.72179687 -29.59072266 16.72179687 -31.27734375 17.203125 C-56.87173494 22.6818824 -83.95447245 17.89484373 -109 11.9296875 C-118.96885617 9.58887253 -128.97353847 8.14101828 -139.125 6.875 C-140.57295827 6.69173467 -142.02087531 6.50814326 -143.46875 6.32421875 C-146.97869992 5.87905712 -150.48918504 5.43829364 -154 5 C-154 3.68 -154 2.36 -154 1 C-138.28224625 0.13744034 -122.64595319 3.84633438 -107.25 6.5625 C-106.06019531 6.77221436 -104.87039063 6.98192871 -103.64453125 7.19799805 C-94.23849357 8.88822885 -94.23849357 8.88822885 -89.765625 10.08203125 C-64.90150971 16.14330417 -37.38034725 14.93052525 -13.75390625 5.40234375 C-11.08207326 4.34281157 -8.45252447 3.58798999 -5.65234375 2.94140625 C-1.98801671 2.32684056 -1.98801671 2.32684056 0 0 Z " fill="#2B1D1A" transform="translate(472,423)"/>
<path d="M0 0 C0.495 2.475 0.495 2.475 1 5 C-7.06855807 7.00634956 -14.90072893 7.3459708 -23.1875 7.5 C-52.60743505 7.98579251 -52.60743505 7.98579251 -81.25390625 14.0859375 C-84.02035926 15.00677677 -86.10874437 15.17007386 -89 15 C-89 13.68 -89 12.36 -89 11 C-88.34 11 -87.68 11 -87 11 C-87 10.34 -87 9.68 -87 9 C-81.46243084 6.75864945 -76.28788992 5.28941678 -70.38671875 4.41796875 C-69.57176437 4.29399216 -68.75681 4.17001556 -67.91716003 4.0422821 C-58.86378869 2.73381192 -49.77174827 2.0670397 -40.64672852 1.49194336 C-37.80338515 1.31192291 -34.96135542 1.11688773 -32.11914062 0.91992188 C-21.39367197 0.20001463 -10.75032529 -0.18149276 0 0 Z " fill="#18140B" transform="translate(478,176)"/>
<path d="M0 0 C0.38218767 1.65614657 0.71395102 3.32457024 1 5 C-0.75711637 6.75711637 -3.24448751 6.15229534 -5.63037109 6.17358398 C-7.43893082 6.19381874 -7.43893082 6.19381874 -9.2840271 6.21446228 C-11.25878525 6.23011986 -11.25878525 6.23011986 -13.2734375 6.24609375 C-14.63571974 6.26160005 -15.99799414 6.27780993 -17.36026001 6.29469299 C-23.15202589 6.36538981 -28.94387435 6.42508976 -34.73583984 6.47680664 C-38.27734939 6.50891143 -41.81865908 6.5502814 -45.36000443 6.59700203 C-47.3487686 6.62050673 -49.3376464 6.63368132 -51.32650757 6.64659119 C-60.57206416 6.77095349 -69.82145598 7.22362273 -78.375 11.0625 C-81.58533693 12.48514095 -84.5331925 13.40586515 -88 14 C-87.75 12.125 -87.75 12.125 -87 10 C-84.9375 8.75 -84.9375 8.75 -83 8 C-83 7.34 -83 6.68 -83 6 C-72.726896 1.9960541 -63.81455107 0.25952876 -52.67578125 0.29296875 C-51.27188521 0.27980021 -49.8680079 0.26448061 -48.4641571 0.24714661 C-44.82107284 0.20780549 -41.17848873 0.1971415 -37.53521729 0.19311523 C-33.81304043 0.18371193 -30.09115044 0.14620255 -26.36914062 0.11132812 C-17.57947084 0.03417068 -8.79003337 0 0 0 Z " fill="#3B2626" transform="translate(308,193)"/>
<path d="M0 0 C1.32 0.66 2.64 1.32 4 2 C3.8125 3.8125 3.8125 3.8125 3 6 C-1.12467917 9.01999631 -5.50867548 10.16932828 -10.375 11.4375 C-11.16720947 11.64922852 -11.95941895 11.86095703 -12.77563477 12.07910156 C-14.40032183 12.51295854 -16.02573196 12.94411692 -17.65185547 13.37255859 C-19.8179781 13.95136242 -21.97404307 14.55657977 -24.12890625 15.17578125 C-25.38574219 15.53027344 -26.64257812 15.88476562 -27.9375 16.25 C-29.03964844 16.56453125 -30.14179688 16.8790625 -31.27734375 17.203125 C-46.69993446 20.50449804 -66.01182114 21.41508398 -81 16 C-81 15.34 -81 14.68 -81 14 C-80.00895264 14.02094727 -79.01790527 14.04189453 -77.99682617 14.06347656 C-55.11904002 14.50431666 -35.06185384 14.1096891 -13.61328125 5.3671875 C-10.90386551 4.34200317 -8.46418459 3.59102878 -5.66796875 2.9453125 C-1.98991111 2.32875274 -1.98991111 2.32875274 0 0 Z " fill="#1C170D" transform="translate(472,423)"/>
<path d="M0 0 C0.33 0 0.66 0 1 0 C0.99777939 0.85174301 0.99555878 1.70348602 0.99327087 2.58103943 C0.97307206 10.68433748 0.95792734 18.78762685 0.94818783 26.89094448 C0.94301204 31.05499297 0.93601325 35.21902031 0.92456055 39.38305664 C0.91354002 43.41609461 0.90768346 47.4491125 0.90512276 51.48216438 C0.90330247 53.00600563 0.89974997 54.52984603 0.89426994 56.05367851 C0.85743755 66.73963147 1.26295478 77.33929983 2 88 C0.34385343 88.38218767 -1.32457024 88.71395102 -3 89 C-4.59429287 87.40570713 -4.14322828 85.73906123 -4.16113281 83.52905273 C-4.17061447 82.57027725 -4.18009613 81.61150177 -4.18986511 80.62367249 C-4.19424088 79.5709465 -4.19861664 78.51822052 -4.203125 77.43359375 C-4.20995804 76.3438475 -4.21679108 75.25410126 -4.22383118 74.1313324 C-4.24105029 70.56669086 -4.24717433 67.00218084 -4.25 63.4375 C-4.25200409 62.23571106 -4.25400818 61.03392212 -4.256073 59.79571533 C-4.27534318 12.82602953 -4.27534318 12.82602953 0 0 Z " fill="#100A0A" transform="translate(211,328)"/>
<path d="M0 0 C1.42848064 2.85696129 1.38673063 5.73425043 1.5625 8.875 C1.6049585 9.61862793 1.64741699 10.36225586 1.69116211 11.12841797 C2.40351127 26.06051777 2.07855409 41.05538572 2 56 C-1.96535458 52.03464542 -1.40062449 44.4656261 -2 39 C-2.09313477 38.17870605 -2.18626953 37.35741211 -2.28222656 36.51123047 C-3.60982698 24.632582 -4.2819325 12.95080535 -4 1 C-2 0 -2 0 0 0 Z " fill="#100A0B" transform="translate(209,218)"/>
<path d="M0 0 C6.04702459 -0.32983771 11.62745592 0.3160717 17.5625 1.375 C18.27011475 1.50108643 18.97772949 1.62717285 19.70678711 1.75708008 C24.52543705 2.65099234 29.25558474 3.77253598 34 5 C34 6.32 34 7.64 34 9 C17.81950565 9.35736061 17.81950565 9.35736061 11.0390625 7.51171875 C7.41139359 6.60132674 3.71730104 6.35402867 0 6 C0 4.02 0 2.04 0 0 Z " fill="#140C0D" transform="translate(218,417)"/>
<path d="M0 0 C5.27693412 0.33856436 10.22031416 0.98677655 15.3125 2.4375 C30.64034018 6.46081272 47.2430749 6.3568602 63 7 C63 7.33 63 7.66 63 8 C50.95249476 8.1063689 39.00505617 8.14724086 27 7 C27 7.66 27 8.32 27 9 C28.98 9 30.96 9 33 9 C33.495 9.99 33.495 9.99 34 11 C26.46822693 10.28612588 19.11358402 8.99428573 11.6875 7.5625 C9.93856445 7.23668945 9.93856445 7.23668945 8.15429688 6.90429688 C7.03474609 6.68966797 5.91519531 6.47503906 4.76171875 6.25390625 C3.75069092 6.06127197 2.73966309 5.8686377 1.69799805 5.67016602 C-1 5 -1 5 -5 3 C-0.71 3.33 3.58 3.66 8 4 C8 3.34 8 2.68 8 2 C5.69 2 3.38 2 1 2 C0.67 1.34 0.34 0.68 0 0 Z " fill="#4D362E" transform="translate(364,430)"/>
<path d="M0 0 C0.67740234 -0.00322266 1.35480469 -0.00644531 2.05273438 -0.00976562 C6.76248556 0.03990577 10.63530487 0.86370472 15.0625 2.3125 C15.3925 3.9625 15.7225 5.6125 16.0625 7.3125 C15.01122925 7.30464478 15.01122925 7.30464478 13.9387207 7.29663086 C10.75082299 7.27579148 7.56293964 7.26281768 4.375 7.25 C2.72081055 7.23743164 2.72081055 7.23743164 1.03320312 7.22460938 C-0.03349609 7.22138672 -1.10019531 7.21816406 -2.19921875 7.21484375 C-3.17850342 7.20960693 -4.15778809 7.20437012 -5.16674805 7.19897461 C-7.86219572 7.30941457 -10.31295639 7.70715834 -12.9375 8.3125 C-13.2675 6.6625 -13.5975 5.0125 -13.9375 3.3125 C-9.22985351 0.52903975 -5.36979112 -0.12700547 0 0 Z " fill="#160F0D" transform="translate(354.9375,186.6875)"/>
<path d="M0 0 C-0.33 1.32 -0.66 2.64 -1 4 C-17.1430794 4.23883013 -32.96238903 3.92520089 -49 2 C-49 1.34 -49 0.68 -49 0 C-42.66473141 -0.16839088 -36.32928874 -0.32825024 -29.99365234 -0.48217773 C-27.83832931 -0.5355498 -25.68305374 -0.59087537 -23.52783203 -0.64819336 C-20.4301171 -0.73023786 -17.33229951 -0.80525759 -14.234375 -0.87890625 C-13.27070007 -0.90594131 -12.30702515 -0.93297638 -11.31414795 -0.96083069 C-10.41351624 -0.98092697 -9.51288452 -1.00102325 -8.58496094 -1.02172852 C-7.79442322 -1.04171402 -7.0038855 -1.06169952 -6.18939209 -1.08229065 C-3.98943242 -0.99960281 -2.10851174 -0.613615 0 0 Z " fill="#0B0707" transform="translate(309,195)"/>
<path d="M0 0 C0.33 0 0.66 0 1 0 C1 9.24 1 18.48 1 28 C1.66 28 2.32 28 3 28 C3 24.7 3 21.4 3 18 C3.33 18 3.66 18 4 18 C4.66 29.55 5.32 41.1 6 53 C3.525 53.495 3.525 53.495 1 54 C0 53 0 53 -0.12025452 50.86766052 C-0.11803391 49.92834183 -0.11581329 48.98902313 -0.11352539 48.02124023 C-0.11344986 46.96021591 -0.11337433 45.89919159 -0.11329651 44.80601501 C-0.10813522 43.651866 -0.10297394 42.49771698 -0.09765625 41.30859375 C-0.0962413 40.13361832 -0.09482635 38.95864288 -0.09336853 37.74806213 C-0.08774992 33.97784936 -0.07519426 30.20769496 -0.0625 26.4375 C-0.0574874 23.88867273 -0.05292408 21.33984453 -0.04882812 18.79101562 C-0.03777444 12.52732367 -0.02101821 6.26366601 0 0 Z " fill="#170F0F" transform="translate(207,363)"/>
<path d="M0 0 C0.33 0 0.66 0 1 0 C1.31681045 14.76688688 0.35406341 29.29796839 -1 44 C-1.33 44 -1.66 44 -2 44 C-2.33 40.7 -2.66 37.4 -3 34 C-3.66 41.59 -4.32 49.18 -5 57 C-5.33 57 -5.66 57 -6 57 C-6.027526 54.56241991 -6.04708568 52.12516459 -6.0625 49.6875 C-6.07087891 49.01654297 -6.07925781 48.34558594 -6.08789062 47.65429688 C-6.10653149 43.68379233 -5.92011991 39.79598997 -5.53125 35.84375 C-4.87787037 29.17603119 -4.65762375 22.50642713 -4.4375 15.8125 C-4.39431641 14.57435547 -4.35113281 13.33621094 -4.30664062 12.06054688 C-4.20169508 9.04044738 -4.09953456 6.02028184 -4 3 C-3.67 3 -3.34 3 -3 3 C-2.34 6.3 -1.68 9.6 -1 13 C-0.67 8.71 -0.34 4.42 0 0 Z " fill="#4A2F30" transform="translate(214,297)"/>
<path d="M0 0 C9.06134845 0.64121274 18.00852005 1.73480542 27 3 C27 3.33 27 3.66 27 4 C20.06697907 4.22731216 13.7831364 3.42002108 7 2 C7 2.66 7 3.32 7 4 C14.26 4.99 21.52 5.98 29 7 C29 7.66 29 8.32 29 9 C17.01542729 8.63683113 5.69427102 6.55255662 -6 4 C-6 3.34 -6 2.68 -6 2 C-4.02 2 -2.04 2 0 2 C0 1.34 0 0.68 0 0 Z " fill="#524327" transform="translate(443,471)"/>
<path d="M0 0 C5.94 0 11.88 0 18 0 C18.33 1.65 18.66 3.3 19 5 C18 6 18 6 16.14233398 6.11352539 C15.35157471 6.10828857 14.56081543 6.10305176 13.74609375 6.09765625 C12.89208984 6.09443359 12.03808594 6.09121094 11.15820312 6.08789062 C10.26037109 6.07951172 9.36253906 6.07113281 8.4375 6.0625 C7.53580078 6.05798828 6.63410156 6.05347656 5.70507812 6.04882812 C3.46998686 6.03700225 1.23502563 6.0205222 -1 6 C-0.67 4.02 -0.34 2.04 0 0 Z " fill="#1E1313" transform="translate(279,420)"/>
<path d="M0 0 C11.03913945 -0.16207546 21.98440762 0.34235269 33 1 C33 1.99 33 2.98 33 4 C28.81255925 4.05840224 24.62522435 4.09373166 20.4375 4.125 C19.25607422 4.14175781 18.07464844 4.15851563 16.85742188 4.17578125 C10.84603241 4.2094585 5.65816878 4.11038894 0 2 C0 1.34 0 0.68 0 0 Z " fill="#080604" transform="translate(391,437)"/>
<path d="M0 0 C8.2425317 -0.26305952 15.91191011 0.39385449 24 2 C24.33 3.32 24.66 4.64 25 6 C16.75 5.34 8.5 4.68 0 4 C0 2.68 0 1.36 0 0 Z " fill="#1C1212" transform="translate(318,424)"/>
<path d="M0 0 C1 3 1 3 -0.109375 5.48828125 C-0.65078125 6.42027344 -1.1921875 7.35226563 -1.75 8.3125 C-2.30429687 9.28445312 -2.85859375 10.25640625 -3.4296875 11.2578125 C-3.94789063 12.16273438 -4.46609375 13.06765625 -5 14 C-6.03446293 15.9858668 -7.02041489 17.98640839 -8 20 C-8.99 20 -9.98 20 -11 20 C-11.29980129 15.27987272 -10.59782598 12.43990234 -8.3125 8.3125 C-7.56419922 6.91451172 -7.56419922 6.91451172 -6.80078125 5.48828125 C-4.81604644 2.74581688 -2.99198352 1.52402568 0 0 Z " fill="#191709" transform="translate(501,157)"/>
<path d="M0 0 C-0.13671875 1.796875 -0.13671875 1.796875 -1 4 C-3.58203125 5.703125 -3.58203125 5.703125 -6.8125 7.25 C-8.39998047 8.03117188 -8.39998047 8.03117188 -10.01953125 8.828125 C-13 10 -13 10 -17 10 C-16.75 8.125 -16.75 8.125 -16 6 C-13.9375 4.75 -13.9375 4.75 -12 4 C-12 3.34 -12 2.68 -12 2 C-7.8794254 0.00214565 -4.54805635 -0.17835515 0 0 Z " fill="#3A2526" transform="translate(237,197)"/>
<path d="M0 0 C7.60045005 0.62399388 15.13660396 1.4997813 22.6875 2.5625 C24.18700195 2.77036133 24.18700195 2.77036133 25.71679688 2.98242188 C28.14485914 3.31933004 30.57257335 3.65854777 33 4 C33 4.99 33 5.98 33 7 C25.25 8.125 25.25 8.125 23 7 C23 6.34 23 5.68 23 5 C22.01902344 5.04125 21.03804688 5.0825 20.02734375 5.125 C15.67204175 5.125 11.74509035 4.13270516 7.5625 3 C6.83095703 2.80921875 6.09941406 2.6184375 5.34570312 2.421875 C3.56180334 1.95549597 1.78060155 1.47881722 0 1 C0 0.67 0 0.34 0 0 Z " fill="#322819" transform="translate(410,466)"/>
<path d="M0 0 C17.82 1.485 17.82 1.485 36 3 C36 3.33 36 3.66 36 4 C30.21408489 4.10477512 24.70690634 3.99250545 19 3 C19 3.66 19 4.32 19 5 C12.56025419 4.37679879 6.32427599 3.35991738 0 2 C0 1.34 0 0.68 0 0 Z " fill="#312A15" transform="translate(450,473)"/>
<path d="M0 0 C13.70683222 -0.12385692 27.31702148 0.1769637 41 1 C41 1.33 41 1.66 41 2 C28.95249476 2.1063689 17.00505617 2.14724086 5 1 C5 1.66 5 2.32 5 3 C6.98 3 8.96 3 11 3 C11.33 3.66 11.66 4.32 12 5 C10.56163249 4.88541307 9.12429034 4.75790884 7.6875 4.625 C6.88699219 4.55539062 6.08648437 4.48578125 5.26171875 4.4140625 C3 4 3 4 0 2 C0 1.34 0 0.68 0 0 Z " fill="#4F3C2B" transform="translate(386,436)"/>
<path d="M0 0 C0.99 0.33 1.98 0.66 3 1 C3 7.93 3 14.86 3 22 C2.34 22.33 1.68 22.66 1 23 C0.15808218 20.0751367 -0.11819313 17.49258344 -0.09765625 14.453125 C-0.09443359 13.60878906 -0.09121094 12.76445312 -0.08789062 11.89453125 C-0.07951172 11.02183594 -0.07113281 10.14914062 -0.0625 9.25 C-0.05798828 8.36183594 -0.05347656 7.47367187 -0.04882812 6.55859375 C-0.037074 4.37232671 -0.02064249 2.18619821 0 0 Z " fill="#130C0C" transform="translate(211,288)"/>
<path d="M0 0 C0.99 0 1.98 0 3 0 C3.268125 0.969375 3.53625 1.93875 3.8125 2.9375 C4.204375 3.948125 4.59625 4.95875 5 6 C5.99 6.33 6.98 6.66 8 7 C9.3515625 8.890625 9.3515625 8.890625 10.625 11.25 C11.05039063 12.01828125 11.47578125 12.7865625 11.9140625 13.578125 C13.02632897 16.05871929 13.5728434 18.32315197 14 21 C11.21521565 17.55336108 8.50798169 14.06403605 5.875 10.5 C5.19179687 9.5821875 4.50859375 8.664375 3.8046875 7.71875 C2.12455485 5.18764108 1.00376323 2.85606858 0 0 Z " fill="#B27274" transform="translate(147,432)"/>
<path d="M0 0 C-1.61120672 1.93241192 -2.59246311 2.89907877 -5.06640625 3.51171875 C-14.0425576 4.14384208 -23.00676185 4.08904196 -32 4 C-32 3.67 -32 3.34 -32 3 C-27.79232825 2.49432626 -23.58376747 1.9964646 -19.375 1.5 C-17.59029297 1.28537109 -17.59029297 1.28537109 -15.76953125 1.06640625 C-14.61582031 0.93105469 -13.46210938 0.79570312 -12.2734375 0.65625 C-11.21560059 0.53056641 -10.15776367 0.40488281 -9.06787109 0.27539062 C-6.02677773 0.00240373 -3.05147488 -0.04799174 0 0 Z " fill="#A57164" transform="translate(347,149)"/>
<path d="M0 0 C6.44070471 -0.10655578 12.62641289 0.03794912 19 1 C19 1.33 19 1.66 19 2 C16.36 2 13.72 2 11 2 C11.33 2.99 11.66 3.98 12 5 C8.7 4.67 5.4 4.34 2 4 C2 3.34 2 2.68 2 2 C1.34 2 0.68 2 0 2 C0 1.34 0 0.68 0 0 Z " fill="#2D2019" transform="translate(375,434)"/>
<path d="M0 0 C0.33 0 0.66 0 1 0 C1 4.62 1 9.24 1 14 C0.34 14 -0.32 14 -1 14 C-1 17.96 -1 21.92 -1 26 C-1.33 26 -1.66 26 -2 26 C-2.05799124 22.22923111 -2.09359306 18.45857666 -2.125 14.6875 C-2.14175781 13.61564453 -2.15851563 12.54378906 -2.17578125 11.43945312 C-2.18222656 10.41142578 -2.18867188 9.38339844 -2.1953125 8.32421875 C-2.20578613 7.37635498 -2.21625977 6.42849121 -2.22705078 5.4519043 C-2 3 -2 3 0 0 Z " fill="#2A1B1B" transform="translate(212,274)"/>
<path d="M0 0 C8.58077055 -0.24911914 16.58173087 0.30117812 25 2 C25 2.66 25 3.32 25 4 C16.49174287 3.56891497 8.30566989 3.01290353 0 1 C0 0.67 0 0.34 0 0 Z " fill="#A48A4C" transform="translate(447,476)"/>
<path d="M0 0 C3.96 0.33 7.92 0.66 12 1 C12.33 2.32 12.66 3.64 13 5 C5.575 4.01 5.575 4.01 -2 3 C-1.34 2.01 -0.68 1.02 0 0 Z " fill="#140D0C" transform="translate(330,425)"/>
<path d="M0 0 C0.66 0 1.32 0 2 0 C3.91318843 7.2890898 4.04819354 13.54932699 3 21 C0.6031335 18.6031335 0.71718867 17.92971686 0.5859375 14.6484375 C0.54726562 13.79765625 0.50859375 12.946875 0.46875 12.0703125 C0.4378125 11.18085938 0.406875 10.29140625 0.375 9.375 C0.33632812 8.4778125 0.29765625 7.580625 0.2578125 6.65625 C0.16340643 4.4377073 0.07783252 2.21917597 0 0 Z " fill="#8F5C5E" transform="translate(122,245)"/>
<path d="M0 0 C0 0.33 0 0.66 0 1 C-0.67546875 1.04898438 -1.3509375 1.09796875 -2.046875 1.1484375 C-2.93890625 1.22320312 -3.8309375 1.29796875 -4.75 1.375 C-5.63171875 1.44460937 -6.5134375 1.51421875 -7.421875 1.5859375 C-9.99066382 1.99850055 -11.75841015 2.71160957 -14 4 C-11.69 4.33 -9.38 4.66 -7 5 C-7 5.33 -7 5.66 -7 6 C-10.3 6.33 -13.6 6.66 -17 7 C-16.67 5.68 -16.34 4.36 -16 3 C-17.32 2.67 -18.64 2.34 -20 2 C-13.38190423 -0.46254726 -6.99560484 -0.18935472 0 0 Z " fill="#644041" transform="translate(253,194)"/>
<path d="M0 0 C0.86625 0.3403125 0.86625 0.3403125 1.75 0.6875 C0.38016497 3.84865776 -0.2390638 4.6802092 -3.25 6.6875 C-4.57 6.6875 -5.89 6.6875 -7.25 6.6875 C-6.87492618 3.96821483 -6.40781339 2.84531339 -4.4375 0.875 C-2.25 -0.3125 -2.25 -0.3125 0 0 Z " fill="#1A1111" transform="translate(227.25,200.3125)"/>
<path d="M0 0 C1.79206547 0.14084796 3.58364917 0.28783701 5.375 0.4375 C6.87160156 0.55931641 6.87160156 0.55931641 8.3984375 0.68359375 C11 1 11 1 13 2 C13 2.66 13 3.32 13 4 C11.20793453 3.85915204 9.41635083 3.71216299 7.625 3.5625 C6.62726563 3.48128906 5.62953125 3.40007812 4.6015625 3.31640625 C2 3 2 3 0 2 C0 1.34 0 0.68 0 0 Z " fill="#17130A" transform="translate(450,473)"/>
<path d="M0 0 C0.33 0 0.66 0 1 0 C1 3.63 1 7.26 1 11 C0.01 11.495 0.01 11.495 -1 12 C-1.2226746 10.56465159 -1.42761906 9.12654475 -1.625 7.6875 C-1.74101562 6.88699219 -1.85703125 6.08648437 -1.9765625 5.26171875 C-2 3 -2 3 0 0 Z " fill="#0C0707" transform="translate(213,299)"/>
<path d="M0 0 C2.97 0.495 2.97 0.495 6 1 C6 1.99 6 2.98 6 4 C3.36 3.67 0.72 3.34 -2 3 C-1.34 2.01 -0.68 1.02 0 0 Z " fill="#0C0807" transform="translate(330,425)"/>
<path d="M0 0 C1.32 0 2.64 0 4 0 C3.67 1.32 3.34 2.64 3 4 C1.35 4 -0.3 4 -2 4 C-1.34 2.68 -0.68 1.36 0 0 Z " fill="#0B0707" transform="translate(233,197)"/>
<path d="M0 0 C2.64 0 5.28 0 8 0 C8 0.66 8 1.32 8 2 C5.69 2.33 3.38 2.66 1 3 C0.67 2.01 0.34 1.02 0 0 Z " fill="#3B2725" transform="translate(320,461)"/>
<path d="M0 0 C0.99 0 1.98 0 3 0 C3.99 2.31 4.98 4.62 6 7 C3.00675737 5.9024777 2.15389099 5.32317108 0.75 2.375 C0.5025 1.59125 0.255 0.8075 0 0 Z " fill="#C78082" transform="translate(147,432)"/>
<path d="M0 0 C0.66 0 1.32 0 2 0 C0.70700306 2.88437779 -0.65941363 4.87219421 -3 7 C-3.66 6.67 -4.32 6.34 -5 6 C-3.38405168 3.95880212 -1.7143618 1.95927063 0 0 Z " fill="#284116" transform="translate(612,189)"/>
<path d="M0 0 C1.12894876 0.93274109 2.25300876 1.87140122 3.375 2.8125 C4.00148438 3.33457031 4.62796875 3.85664063 5.2734375 4.39453125 C7 6 7 6 9 9 C5.18063472 7.44396229 2.73955562 5.04395069 0 2 C0 1.34 0 0.68 0 0 Z " fill="#E6A690" transform="translate(102,443)"/>
<path d="M0 0 C0.33 0 0.66 0 1 0 C1 2.64 1 5.28 1 8 C0.67 8 0.34 8 0 8 C0 5.36 0 2.72 0 0 Z " fill="#E1A78D" transform="translate(106,297)"/>
<path d="M0 0 C2.31 0 4.62 0 7 0 C7 0.33 7 0.66 7 1 C4.69 1 2.38 1 0 1 C0 0.67 0 0.34 0 0 Z " fill="#F4A696" transform="translate(275,522)"/>
<path d="M0 0 C0.99 0.99 1.98 1.98 3 3 C2.67 3.66 2.34 4.32 2 5 C1.34 3.35 0.68 1.7 0 0 Z " fill="#DAA48C" transform="translate(89,423)"/>
<path d="M0 0 C0.33 0.99 0.66 1.98 1 3 C0.34 3.66 -0.32 4.32 -1 5 C-0.67 3.35 -0.34 1.7 0 0 Z " fill="#6EAE53" transform="translate(650,402)"/>
<path d="M0 0 C1.65 0 3.3 0 5 0 C5 0.33 5 0.66 5 1 C3.35 1 1.7 1 0 1 C0 0.67 0 0.34 0 0 Z " fill="#F4A796" transform="translate(268,521)"/>
<path d="M0 0 C4 1 4 1 4 1 Z " fill="#F3A398" transform="translate(317,521)"/>
<path d="M0 0 C1 4 1 4 1 4 Z " fill="#D6A48A" transform="translate(85,412)"/>
<path d="M0 0 C1 4 1 4 1 4 Z " fill="#DBAA88" transform="translate(105,305)"/>
<path d="M0 0 C1 4 1 4 1 4 Z " fill="#70AF53" transform="translate(639,250)"/>
<path d="M0 0 C1 4 1 4 1 4 Z " fill="#74AF56" transform="translate(640,246)"/>
<path d="M0 0 C3 1 3 1 3 1 Z " fill="#F5AF8F" transform="translate(193,506)"/>
<path d="" fill="#6EAC54" transform="translate(0,0)"/>
<path d="" fill="#6EAC55" transform="translate(0,0)"/>
<path d="" fill="#67B14D" transform="translate(0,0)"/>
<path d="M0 0 C3 1 3 1 3 1 Z " fill="#F4AC92" transform="translate(259,92)"/>
<path d="M0 0 C2 1 2 1 2 1 Z " fill="#F4A994" transform="translate(263,520)"/>
<path d="M0 0 C2 1 2 1 2 1 Z " fill="#F7B28F" transform="translate(402,510)"/>
<path d="M0 0 C2 1 2 1 2 1 Z " fill="#E8D967" transform="translate(584,493)"/>
<path d="M0 0 C2 1 2 1 2 1 Z " fill="#E5D867" transform="translate(586,492)"/>
<path d="" fill="#D7A888" transform="translate(0,0)"/>
<path d="" fill="#D9A68A" transform="translate(0,0)"/>
<path d="" fill="#D0A686" transform="translate(0,0)"/>
<path d="" fill="#D0A686" transform="translate(0,0)"/>
<path d="" fill="#CFA786" transform="translate(0,0)"/>
<path d="" fill="#76AE57" transform="translate(0,0)"/>
<path d="M0 0 C2 1 2 1 2 1 Z " fill="#84B259" transform="translate(626,108)"/>
<path d="M0 0 C2 1 2 1 2 1 Z " fill="#F4A696" transform="translate(257,93)"/>
<path d="M0 0 C2 1 2 1 2 1 Z " fill="#F7B48D" transform="translate(375,70)"/>
<path d="" fill="#E9D66B" transform="translate(0,0)"/>
<path d="" fill="#E6D867" transform="translate(0,0)"/>
<path d="" fill="#9ABE58" transform="translate(0,0)"/>
<path d="" fill="#DDAB88" transform="translate(0,0)"/>
<path d="" fill="#DBAB88" transform="translate(0,0)"/>
<path d="" fill="#7EB159" transform="translate(0,0)"/>
<path d="" fill="#6EAC56" transform="translate(0,0)"/>
<path d="" fill="#D0A786" transform="translate(0,0)"/>
<path d="" fill="#5CA754" transform="translate(0,0)"/>
<path d="" fill="#5DA754" transform="translate(0,0)"/>
<path d="" fill="#5FA755" transform="translate(0,0)"/>
<path d="" fill="#79B057" transform="translate(0,0)"/>
<path d="" fill="#7EB158" transform="translate(0,0)"/>
<path d="" fill="#8BB55A" transform="translate(0,0)"/>
</svg>
